<svg data-v-fde0c5aa="" xmlns="http://www.w3.org/2000/svg" viewBox="0 0 300 300" class="font"><!----><defs data-v-fde0c5aa=""><!----></defs><rect data-v-fde0c5aa="" fill="#E7F3FC" x="0" y="0" width="300px" height="300px" class="logo-background-square"></rect><defs data-v-fde0c5aa=""><linearGradient data-v-fde0c5aa="" gradientTransform="rotate(25)" id="055852ba-5060-4546-9ddb-837195e8e1ea" x1="0%" y1="0%" x2="100%" y2="0%"><stop data-v-fde0c5aa="" offset="0%" stop-color="#007DE8" stop-opacity="1"></stop><stop data-v-fde0c5aa="" offset="100%" stop-color="#A1C3DB" stop-opacity="1"></stop></linearGradient></defs><g data-v-fde0c5aa="" id="45149c0d-8fb3-4fc2-9a8b-01092f33eda4" fill="url(#055852ba-5060-4546-9ddb-837195e8e1ea)" transform="matrix(5.6511687201489895,0,0,5.6511687201489895,46.272797360206,99.70106511677402)"><path d="M9.93 5.04L9.93 5.14Q9.93 5.63 9.75 6.14Q9.58 6.65 9.28 7.15Q8.98 7.64 8.57 8.10Q8.17 8.56 7.72 8.95Q7.27 9.34 6.78 9.64Q6.30 9.95 5.84 10.12L5.84 10.12Q5.76 10.01 5.65 9.86Q5.54 9.71 5.41 9.54Q5.28 9.37 5.14 9.20Q5.01 9.04 4.89 8.89L4.89 8.89Q5.87 8.51 6.64 7.98Q7.42 7.46 7.96 6.88Q8.50 6.30 8.79 5.71Q9.08 5.12 9.08 4.61L9.08 4.61Q9.08 4.54 9.06 4.46Q9.04 4.39 9.00 4.33Q8.95 4.28 8.87 4.26Q8.79 4.23 8.68 4.26L8.68 4.26Q8.36 4.33 7.97 4.51Q7.59 4.70 7.16 4.97Q6.73 5.25 6.27 5.61Q5.81 5.97 5.34 6.39L5.34 6.39Q5.09 7.18 4.76 8.07Q4.43 8.96 4.05 9.83Q3.66 10.71 3.24 11.54Q2.82 12.37 2.39 13.05Q1.96 13.74 1.52 14.24Q1.09 14.75 0.68 14.96L0.68 14.96Q0.58 15.02 0.43 15.07Q0.29 15.11 0.07 15.13L0.07 15.13Q-0.01 15.14-0.13 15.07Q-0.24 14.99-0.36 14.88Q-0.47 14.76-0.59 14.62Q-0.70 14.47-0.80 14.34Q-0.90 14.21-0.97 14.11Q-1.03 14.01-1.05 13.97L-1.05 13.97Q-1.11 13.87-1.11 13.73Q-1.11 13.59-1.08 13.45L-1.08 13.45Q-0.94 13.00-0.70 12.45Q-0.45 11.90-0.12 11.30Q0.21 10.71 0.62 10.07Q1.03 9.44 1.49 8.81Q1.96 8.19 2.48 7.58Q2.99 6.97 3.54 6.42L3.54 6.42Q3.89 5.33 4.12 4.36Q4.34 3.39 4.38 2.67L4.38 2.67Q4.66 2.78 4.90 2.95Q5.15 3.12 5.35 3.31Q5.54 3.49 5.69 3.68Q5.84 3.86 5.93 4.01L5.93 4.01Q5.92 4.12 5.90 4.24Q5.88 4.36 5.84 4.50L5.84 4.50Q6.54 4.05 7.20 3.80Q7.87 3.55 8.50 3.55L8.50 3.55Q8.63 3.55 8.78 3.64Q8.93 3.72 9.09 3.85Q9.25 3.99 9.40 4.15Q9.54 4.31 9.66 4.48Q9.78 4.65 9.85 4.80Q9.92 4.94 9.93 5.04L9.93 5.04ZM0.03 13.73L0.03 13.73Q0.18 13.73 0.45 13.38Q0.72 13.04 1.05 12.43Q1.38 11.83 1.75 11.03Q2.12 10.23 2.48 9.34L2.48 9.34Q1.94 9.98 1.48 10.61Q1.02 11.24 0.68 11.80Q0.34 12.37 0.15 12.84Q-0.04 13.32-0.04 13.65L-0.04 13.65Q-0.04 13.73 0.03 13.73ZM11.16 10.85L11.16 10.85Q11.07 11.12 10.94 11.46Q10.81 11.80 10.68 12.13Q10.56 12.46 10.48 12.72Q10.39 12.99 10.39 13.10L10.39 13.10Q10.39 13.15 10.43 13.15L10.43 13.15Q10.51 13.15 10.66 13.06Q10.81 12.97 11.00 12.82Q11.20 12.68 11.41 12.51Q11.62 12.34 11.82 12.17Q12.01 12.00 12.17 11.87Q12.33 11.73 12.41 11.66L12.41 11.66Q12.47 11.72 12.55 11.82Q12.64 11.92 12.71 12.00L12.71 12.00Q12.56 12.15 12.34 12.36Q12.11 12.58 11.85 12.80Q11.59 13.03 11.30 13.25Q11.02 13.48 10.75 13.66Q10.48 13.84 10.25 13.95Q10.01 14.05 9.86 14.05L9.86 14.05Q9.75 14.05 9.60 13.98Q9.44 13.91 9.30 13.81Q9.15 13.70 9.05 13.57Q8.95 13.44 8.95 13.32L8.95 13.32Q9.05 12.86 9.15 12.52Q9.26 12.17 9.34 11.93Q9.43 11.69 9.50 11.54Q9.57 11.39 9.60 11.31L9.60 11.31Q9.52 11.28 9.45 11.24Q9.37 11.20 9.30 11.16L9.30 11.16Q9.19 11.27 9.05 11.40Q8.92 11.53 8.78 11.66Q8.65 11.79 8.51 11.92Q8.37 12.04 8.26 12.14L8.26 12.14L7.94 11.81Q8.11 11.63 8.36 11.39Q8.61 11.15 8.85 10.90L8.85 10.90Q8.68 10.80 8.54 10.71Q8.41 10.62 8.31 10.54L8.31 10.54Q8.20 10.46 8.11 10.39L8.11 10.39Q8.07 10.37 8.07 10.30L8.07 10.30Q8.07 10.23 8.12 10.09Q8.18 9.95 8.27 9.79Q8.36 9.63 8.46 9.46Q8.57 9.29 8.66 9.15Q8.76 9.02 8.83 8.93Q8.90 8.85 8.92 8.85L8.92 8.85Q8.93 8.85 9.01 8.88Q9.09 8.91 9.18 8.96Q9.27 9.00 9.34 9.06Q9.42 9.11 9.44 9.15L9.44 9.15Q9.45 9.19 9.45 9.30Q9.46 9.41 9.47 9.56L9.47 9.56Q9.73 9.70 10.01 9.87Q10.29 10.05 10.53 10.21L10.53 10.21Q10.80 10.38 11.05 10.57L11.05 10.57Q11.14 10.62 11.16 10.71Q11.18 10.79 11.16 10.85ZM16.24 13.08L16.24 13.08Q16.24 13.12 16.28 13.12L16.28 13.12Q16.34 13.12 16.49 13.03Q16.63 12.94 16.82 12.80Q17.00 12.67 17.21 12.50Q17.42 12.33 17.61 12.16Q17.80 12.00 17.95 11.86Q18.11 11.72 18.19 11.65L18.19 11.65Q18.25 11.71 18.34 11.81Q18.44 11.92 18.51 12.00L18.51 12.00Q18.35 12.15 18.12 12.36Q17.89 12.58 17.63 12.81Q17.36 13.04 17.08 13.27Q16.80 13.50 16.54 13.68Q16.27 13.86 16.03 13.97Q15.79 14.08 15.61 14.08L15.61 14.08Q15.49 14.08 15.34 14.03Q15.20 13.99 15.07 13.90Q14.95 13.82 14.87 13.70Q14.79 13.58 14.79 13.44L14.79 13.44Q14.79 13.38 14.78 13.31Q14.78 13.23 14.79 13.10Q14.81 12.97 14.85 12.79Q14.89 12.61 14.97 12.35L14.97 12.35Q14.75 12.58 14.44 12.84Q14.14 13.10 13.80 13.34Q13.47 13.57 13.13 13.76Q12.79 13.95 12.50 14.04L12.50 14.04Q12.47 14.05 12.45 14.05Q12.43 14.05 12.41 14.05L12.41 14.05Q12.34 14.05 12.23 13.99Q12.11 13.92 12.00 13.81Q11.89 13.69 11.82 13.55Q11.74 13.41 11.74 13.26L11.74 13.26Q11.74 13.22 11.78 12.99Q11.82 12.76 11.97 12.40Q12.13 12.04 12.43 11.59Q12.73 11.14 13.25 10.67L13.25 10.67Q13.51 10.43 13.82 10.22L13.82 10.22Q14.08 10.04 14.42 9.86Q14.75 9.67 15.12 9.56L15.12 9.56Q15.13 9.56 15.15 9.56Q15.16 9.55 15.18 9.56L15.18 9.56Q15.26 9.59 15.37 9.65Q15.48 9.71 15.60 9.77Q15.71 9.84 15.79 9.90Q15.88 9.97 15.91 10.01L15.91 10.01Q15.91 10.02 15.91 10.03L15.91 10.03L15.89 10.04Q15.59 10.21 15.31 10.41Q15.04 10.61 14.83 10.79L14.83 10.79Q14.58 11.00 14.37 11.20L14.37 11.20Q13.87 11.70 13.68 12.06Q13.49 12.41 13.49 12.57L13.49 12.57Q13.49 12.69 13.58 12.69L13.58 12.69Q13.68 12.69 13.83 12.61Q13.97 12.53 14.16 12.40Q14.34 12.26 14.56 12.08Q14.79 11.90 15.03 11.70L15.03 11.70Q15.24 11.53 15.44 11.33L15.44 11.33Q15.61 11.17 15.79 10.96Q15.98 10.75 16.11 10.53L16.11 10.53Q16.11 10.52 16.11 10.51L16.11 10.51Q16.12 10.51 16.13 10.51L16.13 10.51Q16.21 10.57 16.30 10.69Q16.40 10.82 16.48 10.97Q16.56 11.12 16.62 11.26Q16.68 11.40 16.68 11.48L16.68 11.48Q16.52 11.80 16.44 12.06Q16.35 12.33 16.31 12.52Q16.26 12.72 16.25 12.86Q16.24 13.00 16.24 13.08ZM21.37 12.97L21.37 12.97Q21.08 12.97 20.87 12.87L20.87 12.87Q20.64 13.11 20.40 13.32Q20.15 13.53 19.91 13.69Q19.67 13.85 19.44 13.95Q19.21 14.04 19.00 14.05L19.00 14.05Q18.90 14.05 18.71 13.97Q18.51 13.88 18.32 13.74Q18.14 13.60 18.00 13.42Q17.86 13.23 17.86 13.05L17.86 13.05Q17.86 12.60 17.94 12.14Q18.03 11.69 18.17 11.25Q18.30 10.80 18.46 10.37Q18.62 9.95 18.76 9.55L18.76 9.55Q19.11 9.71 19.44 9.90Q19.78 10.09 20.06 10.35L20.06 10.35Q19.96 10.55 19.86 10.82Q19.76 11.09 19.66 11.38Q19.56 11.66 19.48 11.95Q19.40 12.24 19.34 12.48Q19.28 12.73 19.24 12.92Q19.21 13.10 19.21 13.19L19.21 13.19Q19.21 13.24 19.23 13.29Q19.26 13.33 19.31 13.33L19.31 13.33Q19.42 13.33 19.55 13.26Q19.69 13.19 19.84 13.08Q19.99 12.97 20.14 12.81Q20.30 12.66 20.44 12.49L20.44 12.49Q20.32 12.28 20.32 12.07L20.32 12.07Q20.32 11.92 20.36 11.72Q20.41 11.52 20.48 11.30Q20.56 11.08 20.65 10.86Q20.74 10.64 20.84 10.45Q20.94 10.25 21.03 10.11Q21.12 9.97 21.20 9.90L21.20 9.90Q21.36 9.96 21.53 10.07Q21.70 10.17 21.84 10.29Q21.98 10.41 22.08 10.52Q22.17 10.64 22.18 10.71L22.18 10.71Q22.18 10.86 22.11 11.05Q22.05 11.24 21.93 11.46Q21.81 11.68 21.64 11.93Q21.47 12.17 21.27 12.41L21.27 12.41Q21.31 12.43 21.36 12.44Q21.40 12.45 21.46 12.45L21.46 12.45Q21.74 12.45 21.95 12.39Q22.16 12.34 22.35 12.23Q22.54 12.13 22.73 11.97Q22.91 11.81 23.13 11.61L23.13 11.61Q23.19 11.67 23.29 11.77Q23.39 11.87 23.45 11.94L23.45 11.94Q23.17 12.23 22.91 12.42Q22.65 12.62 22.40 12.74Q22.16 12.86 21.90 12.91Q21.65 12.97 21.37 12.97ZM27.46 11.66L27.79 12.00Q27.17 12.61 26.61 13.03Q26.05 13.45 25.55 13.70Q25.04 13.95 24.58 14.06Q24.12 14.17 23.68 14.17L23.68 14.17Q23.50 14.17 23.27 14.03Q23.04 13.90 22.85 13.70Q22.65 13.51 22.52 13.30Q22.39 13.08 22.39 12.93L22.39 12.93Q22.39 12.37 22.55 11.90Q22.70 11.44 22.96 11.06Q23.21 10.68 23.53 10.40Q23.86 10.11 24.21 9.92Q24.56 9.73 24.91 9.63Q25.26 9.54 25.55 9.54L25.55 9.54Q25.76 9.54 25.97 9.66Q26.18 9.78 26.35 9.96Q26.52 10.14 26.63 10.33Q26.74 10.53 26.74 10.67L26.74 10.67Q26.74 10.90 26.54 11.15Q26.35 11.39 25.99 11.64Q25.63 11.89 25.14 12.16Q24.64 12.42 24.04 12.69L24.04 12.69Q24.01 12.85 24.01 13.01L24.01 13.01Q24.01 13.22 24.11 13.30Q24.20 13.37 24.45 13.37L24.45 13.37Q24.90 13.37 25.30 13.22Q25.70 13.07 26.07 12.83Q26.44 12.59 26.78 12.28Q27.13 11.98 27.46 11.66L27.46 11.66ZM25.39 10.29L25.39 10.29Q25.25 10.29 25.09 10.44Q24.92 10.58 24.76 10.82Q24.60 11.06 24.45 11.37Q24.29 11.68 24.19 12.02L24.19 12.02Q24.44 11.85 24.68 11.67Q24.92 11.48 25.12 11.28Q25.31 11.08 25.42 10.87Q25.54 10.66 25.54 10.45L25.54 10.45Q25.54 10.38 25.50 10.34Q25.46 10.29 25.39 10.29ZM31.87 11.66L32.20 12.00Q31.58 12.61 31.02 13.03Q30.46 13.45 29.96 13.70Q29.45 13.95 28.99 14.06Q28.53 14.17 28.09 14.17L28.09 14.17Q27.90 14.17 27.68 14.03Q27.45 13.90 27.26 13.70Q27.06 13.51 26.93 13.30Q26.80 13.08 26.80 12.93L26.80 12.93Q26.80 12.37 26.96 11.90Q27.11 11.44 27.36 11.06Q27.62 10.68 27.94 10.40Q28.27 10.11 28.62 9.92Q28.97 9.73 29.32 9.63Q29.67 9.54 29.96 9.54L29.96 9.54Q30.17 9.54 30.38 9.66Q30.59 9.78 30.76 9.96Q30.93 10.14 31.04 10.33Q31.14 10.53 31.14 10.67L31.14 10.67Q31.14 10.90 30.95 11.15Q30.75 11.39 30.40 11.64Q30.04 11.89 29.54 12.16Q29.05 12.42 28.44 12.69L28.44 12.69Q28.42 12.85 28.42 13.01L28.42 13.01Q28.42 13.22 28.52 13.30Q28.61 13.37 28.86 13.37L28.86 13.37Q29.31 13.37 29.71 13.22Q30.11 13.07 30.48 12.83Q30.85 12.59 31.19 12.28Q31.53 11.98 31.87 11.66L31.87 11.66ZM29.80 10.29L29.80 10.29Q29.66 10.29 29.50 10.44Q29.33 10.58 29.17 10.82Q29.00 11.06 28.85 11.37Q28.70 11.68 28.59 12.02L28.59 12.02Q28.85 11.85 29.09 11.67Q29.33 11.48 29.52 11.28Q29.72 11.08 29.83 10.87Q29.95 10.66 29.95 10.45L29.95 10.45Q29.95 10.38 29.91 10.34Q29.87 10.29 29.80 10.29ZM33.80 10.38L33.80 10.38Q33.72 10.60 33.64 10.82Q33.56 11.05 33.48 11.29L33.48 11.29Q33.91 10.79 34.22 10.48Q34.53 10.17 34.74 9.99Q34.96 9.82 35.09 9.75Q35.23 9.69 35.30 9.69L35.30 9.69Q35.39 9.69 35.57 9.78Q35.75 9.86 35.93 9.99Q36.11 10.12 36.24 10.26Q36.37 10.40 36.37 10.50L36.37 10.50Q36.37 10.52 36.37 10.55Q36.36 10.58 36.35 10.63L36.35 10.63Q36.29 10.80 36.21 11.03Q36.12 11.27 36.03 11.52Q35.93 11.76 35.83 12.01Q35.74 12.26 35.66 12.48Q35.59 12.70 35.54 12.87Q35.49 13.03 35.49 13.10L35.49 13.10Q35.49 13.15 35.53 13.15L35.53 13.15Q35.61 13.15 35.76 13.06Q35.91 12.97 36.10 12.82Q36.30 12.68 36.51 12.51Q36.72 12.34 36.92 12.17Q37.11 12.00 37.27 11.87Q37.43 11.73 37.51 11.66L37.51 11.66Q37.58 11.72 37.66 11.82Q37.74 11.92 37.82 12.00L37.82 12.00Q37.67 12.15 37.44 12.36Q37.21 12.58 36.95 12.80Q36.69 13.03 36.40 13.25Q36.12 13.48 35.85 13.66Q35.59 13.84 35.36 13.95Q35.12 14.05 34.97 14.05L34.97 14.05Q34.86 14.05 34.71 13.98Q34.55 13.91 34.40 13.81Q34.25 13.70 34.15 13.57Q34.05 13.44 34.05 13.32L34.05 13.32Q34.11 13.04 34.22 12.68Q34.32 12.33 34.45 11.95Q34.57 11.58 34.70 11.21Q34.84 10.85 34.96 10.54L34.96 10.54L34.95 10.55Q34.82 10.71 34.57 10.97Q34.33 11.22 34.02 11.62Q33.71 12.02 33.37 12.59Q33.03 13.15 32.70 13.92L32.70 13.92Q32.66 14.02 32.63 14.08Q32.59 14.13 32.50 14.13L32.50 14.13Q32.38 14.13 32.23 14.06Q32.09 14 31.93 13.89Q31.78 13.79 31.63 13.66Q31.47 13.53 31.35 13.40L31.35 13.40Q31.35 13.36 31.39 13.17Q31.42 12.97 31.49 12.68Q31.56 12.39 31.66 12.02Q31.77 11.65 31.90 11.24Q32.03 10.83 32.18 10.40Q32.33 9.97 32.51 9.58L32.51 9.58Q32.80 9.71 33.15 9.91Q33.50 10.11 33.80 10.38Z"></path></g><!----><!----></svg>